<?xml version="1.0" encoding="utf-8"?>
<!-- Generator: Adobe Illustrator 21.1.0, SVG Export Plug-In . SVG Version: 6.00 Build 0)  -->
<svg version="1.1" id="Layer_1" xmlns="http://www.w3.org/2000/svg" xmlns:xlink="http://www.w3.org/1999/xlink" x="0px" y="0px"
	 viewBox="0 0 19.4 16.1" style="enable-background:new 0 0 19.4 16.1;" xml:space="preserve">
<style type="text/css">
	.st0{fill:url(#Path_1554_1_);}
</style>
<linearGradient id="Path_1554_1_" gradientUnits="userSpaceOnUse" x1="-125.6577" y1="272.184" x2="-125.6577" y2="271.184" gradientTransform="matrix(19.438 0 0 -16.106 2452.2539 4383.7949)">
	<stop  offset="0" style="stop-color:#45D0FD"/>
	<stop  offset="1" style="stop-color:#4AEEC9"/>
</linearGradient>
<path id="Path_1554" class="st0" d="M9.8,2.2C7.8,0.8,5.3,0,2.8,0H2.3v1.9C1.5,2,0.8,2.2,0,2.4v13.7c3.1-0.9,6.4-1,9.6-0.2l0.1,0
	l0.1,0c3.2-0.8,6.5-0.7,9.6,0.2V2.4C16.3,1.6,13,1.5,9.8,2.2z M1.1,14.7V3.3c0.4-0.1,0.8-0.2,1.1-0.2v10.6h0.6
	c1.2,0,2.5,0.2,3.6,0.6C4.7,14.2,2.9,14.3,1.1,14.7z M9.1,14.3c-1.7-1.1-3.7-1.7-5.7-1.8V1.2c2.1,0.1,4,0.8,5.7,2V14.3z M18.3,14.7
	c-2.6-0.6-5.4-0.6-8,0V3.3c2.6-0.6,5.4-0.6,8,0V14.7z"/>
</svg>
