<?xml version="1.0" encoding="utf-8"?>
<!-- Generator: Adobe Illustrator 21.1.0, SVG Export Plug-In . SVG Version: 6.00 Build 0)  -->
<svg version="1.1" id="Layer_1" xmlns="http://www.w3.org/2000/svg" xmlns:xlink="http://www.w3.org/1999/xlink" x="0px" y="0px"
	 viewBox="0 0 20.2 19.9" style="enable-background:new 0 0 20.2 19.9;" xml:space="preserve">
<style type="text/css">
	.st0{fill:url(#Path_1230_1_);}
	.st1{fill:url(#Path_1231_1_);}
</style>
<g id="Group_3314" transform="translate(-56 -489.088)">
	
		<linearGradient id="Path_1230_1_" gradientUnits="userSpaceOnUse" x1="-64.6048" y1="753.543" x2="-64.6048" y2="749.5289" gradientTransform="matrix(11.181 0 0 -9.28 792.937 7470.0303)">
		<stop  offset="0" style="stop-color:#45D0FD"/>
		<stop  offset="1" style="stop-color:#4AEEC9"/>
	</linearGradient>
	<path id="Path_1230" class="st0" d="M74.8,499.7l-6.3,6.4l-2.1-2.1l-1.4,1.4l3.5,3.6l7.7-7.9L74.8,499.7z"/>
	
		<linearGradient id="Path_1231_1_" gradientUnits="userSpaceOnUse" x1="-67.609" y1="764.4896" x2="-67.609" y2="760.4756" gradientTransform="matrix(14.959 0 0 -14.911 1074.843 11852.1309)">
		<stop  offset="0" style="stop-color:#45D0FD"/>
		<stop  offset="1" style="stop-color:#4AEEC9"/>
	</linearGradient>
	<path id="Path_1231" class="st1" d="M64.7,502.9H71v-2.1c-1.6-0.8-3.3-1.2-5-1.3v-0.9c1.5-0.9,2.5-2.5,2.5-4.3c0-2.9,0-5.2-3.7-5.2
		c-3.7,0-3.7,2.3-3.7,5.2c0,1.8,1,3.4,2.5,4.3v0.9c-4.2,0.3-7.5,2.2-7.5,4.5h8.7V502.9L64.7,502.9z"/>
</g>
</svg>
