<?xml version="1.0" encoding="utf-8"?>
<!-- Generator: Adobe Illustrator 21.1.0, SVG Export Plug-In . SVG Version: 6.00 Build 0)  -->
<svg version="1.1" id="Layer_1" xmlns="http://www.w3.org/2000/svg" xmlns:xlink="http://www.w3.org/1999/xlink" x="0px" y="0px"
	 viewBox="0 0 23.1 16.4" style="enable-background:new 0 0 23.1 16.4;" xml:space="preserve">
	<style type="text/css">
		.st0{fill:url(#eye_1_);}
	</style>
	<g id="Group_3313" transform="translate(11462.116 -562.105)">
		
		<linearGradient id="eye_1_" gradientUnits="userSpaceOnUse" x1="-11587.084" y1="834.0815" x2="-11587.084" y2="833.0815" gradientTransform="matrix(22.84 -0.3883 -0.2726 -16.036 253425.6875 9438.6074)">
			<stop  offset="0" style="stop-color:#4AEEC9"/>
			<stop  offset="1" style="stop-color:#45D0FD"/>
		</linearGradient>
		<path id="eye" class="st0" d="M-11450.7,562.3c-5,0.1-9.2,3.4-11.3,8.2c2.2,4.7,6.6,7.9,11.6,7.8c5-0.1,9.2-3.4,11.3-8.2C-11441.3,565.4-11445.7,562.2-11450.7,562.3zM-11445,566.5c1.4,1,2.5,2.2,3.4,3.7c-0.8,1.5-1.9,2.8-3.3,3.8c-3.3,2.5-7.9,2.6-11.3,0.2c-1.4-1-2.5-2.2-3.4-3.7c0.8-1.5,1.9-2.8,3.3-3.8c0.1-0.1,0.2-0.1,0.3-0.2c-0.2,0.7-0.3,1.5-0.3,2.2c0.1,3.5,2.7,6.4,5.8,6.3c3.2-0.1,5.7-3,5.6-6.5c0-0.7-0.1-1.5-0.4-2.2C-11445.2,566.3-11445.1,566.4-11445,566.5zM-11450.6,567.9c0.1,1.3-0.8,2.3-2.1,2.4c-1.3-0.1-2.2-1.1-2.2-2.4c-0.1-1.3,0.8-2.3,2.1-2.4C-11451.5,565.6-11450.6,566.7-11450.6,567.9z"/>
	</g>
</svg>
