<svg id="profile" xmlns="http://www.w3.org/2000/svg" xmlns:xlink="http://www.w3.org/1999/xlink" width="23.932" height="25.311" viewBox="0 0 23.932 25.311">
  <defs>
    <linearGradient id="linear-gradient" x1="0.5" x2="0.5" y2="1" gradientUnits="objectBoundingBox">
      <stop offset="0" stop-color="#45d0fd"/>
      <stop offset="1" stop-color="#4aeec9"/>
    </linearGradient>
  </defs>
  <path id="profile-2" data-name="profile" d="M21.538,0H2.393A2.39,2.39,0,0,0,0,2.373V22.938a2.39,2.39,0,0,0,2.393,2.373H21.538a2.39,2.39,0,0,0,2.393-2.373V2.373A2.39,2.39,0,0,0,21.538,0Zm-.8,22.147H3.191V3.164h17.55ZM6.382,14.237H17.55v1.582H6.382Zm0,3.164H17.55v1.582H6.382Zm1.6-10.283A2.393,2.393,0,1,1,10.37,9.492,2.383,2.383,0,0,1,7.977,7.119Zm3.989,2.373H8.775c-1.316,0-2.393.712-2.393,1.582v1.582h7.977V11.074C14.359,10.2,13.282,9.492,11.966,9.492Z" fill="url(#linear-gradient)"/>
</svg>
