<?xml version="1.0" encoding="utf-8"?>
<!-- Generator: Adobe Illustrator 21.1.0, SVG Export Plug-In . SVG Version: 6.00 Build 0)  -->
<svg version="1.1" id="Layer_1" xmlns="http://www.w3.org/2000/svg" xmlns:xlink="http://www.w3.org/1999/xlink" x="0px" y="0px"
	 viewBox="0 0 19 19" style="enable-background:new 0 0 19 19;" xml:space="preserve">
<style type="text/css">
	.st0{fill:url(#Path_1549_1_);}
	.st1{fill:url(#Ellipse_240_1_);}
	.st2{fill:url(#Path_1550_1_);}
	.st3{fill:url(#Path_1551_1_);}
	.st4{fill:url(#Path_1552_1_);}
</style>
<g id="Group_3309" transform="translate(-91 -772.465)">
	
		<linearGradient id="Path_1549_1_" gradientUnits="userSpaceOnUse" x1="-35.4474" y1="1048.2645" x2="-35.4474" y2="1047.2645" gradientTransform="matrix(19 0 0 -19 774 20689.4902)">
		<stop  offset="0" style="stop-color:#45D0FD"/>
		<stop  offset="1" style="stop-color:#4AEEC9"/>
	</linearGradient>
	<path id="Path_1549" class="st0" d="M108.3,772.5H92.7c-0.9,0-1.7,0.7-1.7,1.7v15.7c0,0.9,0.7,1.7,1.7,1.7h15.7
		c0.9,0,1.7-0.7,1.7-1.7v-15.7C110,773.2,109.3,772.5,108.3,772.5z M92.7,773.6h15.7c0.3,0,0.6,0.2,0.6,0.6v2.8H92.1v-2.8
		C92.1,773.8,92.4,773.6,92.7,773.6z M108.3,790.4H92.7c-0.3,0-0.6-0.2-0.6-0.6V778h16.8v11.8C108.9,790.1,108.6,790.4,108.3,790.4z
		"/>
	
		<linearGradient id="Ellipse_240_1_" gradientUnits="userSpaceOnUse" x1="91" y1="972.475" x2="91" y2="971.475" gradientTransform="matrix(1 0 0 -3 4.521 3691.4241)">
		<stop  offset="0" style="stop-color:#45D0FD"/>
		<stop  offset="1" style="stop-color:#4AEEC9"/>
	</linearGradient>
	<ellipse id="Ellipse_240" class="st1" cx="95.5" cy="775.5" rx="0" ry="1.5"/>
	
		<linearGradient id="Path_1550_1_" gradientUnits="userSpaceOnUse" x1="-31.5737" y1="1002.5149" x2="-31.5737" y2="1001.5149" gradientTransform="matrix(12.264 0 0 -4.503 487.739 5293.4531)">
		<stop  offset="0" style="stop-color:#45D0FD"/>
		<stop  offset="1" style="stop-color:#4AEEC9"/>
	</linearGradient>
	<path id="Path_1550" class="st2" d="M106.1,779.1H94.9c-0.3,0-0.6,0.3-0.6,0.6l0,0v3.4c0,0.3,0.2,0.6,0.6,0.6l0,0h11.2
		c0.3,0,0.6-0.3,0.6-0.6l0,0v-3.4C106.7,779.4,106.4,779.1,106.1,779.1L106.1,779.1z M105.5,782.5h-10v-2.3h10L105.5,782.5z"/>
	
		<linearGradient id="Path_1551_1_" gradientUnits="userSpaceOnUse" x1="-22.497" y1="1002.5153" x2="-22.497" y2="1001.5153" gradientTransform="matrix(6.699 0 0 -4.503 248.4289 5299.0757)">
		<stop  offset="0" style="stop-color:#45D0FD"/>
		<stop  offset="1" style="stop-color:#4AEEC9"/>
	</linearGradient>
	<path id="Path_1551" class="st3" d="M100.5,784.7h-5.6c-0.3,0-0.6,0.2-0.6,0.6l0,0v3.4c0,0.3,0.2,0.6,0.6,0.6c0,0,0,0,0,0h5.6
		c0.3,0,0.6-0.2,0.6-0.6l0,0v-3.4C101.1,785,100.8,784.7,100.5,784.7C100.5,784.7,100.5,784.7,100.5,784.7z M100,788.1h-4.5v-2.3
		h4.5V788.1z"/>
	
		<linearGradient id="Path_1552_1_" gradientUnits="userSpaceOnUse" x1="-12.7422" y1="1002.5153" x2="-12.7422" y2="1001.5153" gradientTransform="matrix(4.503 0 0 -4.503 161.7899 5299.0757)">
		<stop  offset="0" style="stop-color:#45D0FD"/>
		<stop  offset="1" style="stop-color:#4AEEC9"/>
	</linearGradient>
	<path id="Path_1552" class="st4" d="M106.1,784.7h-3.4c-0.3,0-0.6,0.2-0.6,0.6v0v3.4c0,0.3,0.2,0.6,0.6,0.6h0h3.4
		c0.3,0,0.6-0.2,0.6-0.6v0v-3.4C106.7,785,106.4,784.7,106.1,784.7L106.1,784.7z M105.5,788.1h-2.3v-2.3h2.3V788.1z"/>
</g>
</svg>
